# xmcd
#
# Track frame offsets:
# 150
# 17007
# 33560
# 45785
# 60352
# 71092
# 86005
# 101042
# 115650
# 135112
# 149187
# 164777
# 179835
# 194615
#
# Disc length: 2780 seconds
#
#
# Revision: 0
# Processed by: cddbd v1.5.2PL0 Copyright (c) Steve Scherf et al.
# Submitted via: FreeRIP 2.951 
#
DISCID=ca0ada0e
DTITLE=Amado and Bartô - Brasil Popular
DYEAR=2007
DGENRE=romantica
TTITLE0=PRINCESA
TTITLE1=ESTA CIDADE E UMA SELVA SEM VOCE
TTITLE2=EU SOU SEU FA
TTITLE3=LEMBRANÇA DE NOS DOIS
TTITLE4=MEU EX-AMOR
TTITLE5=EU E ELA
TTITLE6=MENININHA MEU AMOR
TTITLE7=MAQUINAS HUMANAS
TTITLE8=SERESTEIROS DA NOITE
TTITLE9=CASA BONITA
TTITLE10=ANJO BOM
TTITLE11=UM NOVO AMANHA
TTITLE12=HOSPICIO
TTITLE13=VIVENDO SEM O SEU AMOR
EXTD=
EXTT0=
EXTT1=
EXTT2=
EXTT3=
EXTT4=
EXTT5=
EXTT6=
EXTT7=
EXTT8=
EXTT9=
EXTT10=
EXTT11=
EXTT12=
EXTT13=
PLAYORDER=
